<svg width="42" height="63" viewBox="0 0 42 63" fill="none" xmlns="http://www.w3.org/2000/svg">
<path d="M23.205 1.20034C22.967 0.832042 22.6405 0.529221 22.2554 0.31954C21.8702 0.109858 21.4386 0 21 0C20.5614 0 20.1298 0.109858 19.7446 0.31954C19.3595 0.529221 19.033 0.832042 18.795 1.20034C18.6112 1.489 0 30.8012 0 42.0065C0 47.5743 2.21249 52.9141 6.15076 56.8511C10.089 60.7882 15.4305 63 21 63C26.5695 63 31.911 60.7882 35.8492 56.8511C39.7875 52.9141 42 47.5743 42 42.0065C42 30.8274 23.3887 1.489 23.205 1.20034ZM21 55.7572C17.3517 55.7503 13.8543 54.3002 11.2721 51.7237C8.68985 49.1472 7.23262 45.6537 7.21875 42.0065C7.21875 41.4845 7.42617 40.9839 7.79538 40.6148C8.1646 40.2457 8.66535 40.0383 9.1875 40.0383C9.70964 40.0383 10.2104 40.2457 10.5796 40.6148C10.9488 40.9839 11.1562 41.4845 11.1562 42.0065C11.1701 44.6097 12.2125 47.102 14.0563 48.9403C15.9001 50.7787 18.3959 51.8141 21 51.821C21.5221 51.821 22.0229 52.0283 22.3921 52.3974C22.7613 52.7665 22.9688 53.2671 22.9688 53.7891C22.9688 54.3111 22.7613 54.8117 22.3921 55.1808C22.0229 55.5499 21.5221 55.7572 21 55.7572Z" fill="#D40000" fill-opacity="0.9"/>
</svg>
