<svg width="64" height="57" viewBox="0 0 64 57" fill="none" xmlns="http://www.w3.org/2000/svg">
<path d="M54.2292 36.6542C54.5458 36.3375 54.7042 35.9681 54.7042 35.5458C54.7042 35.1236 54.5458 34.7542 54.2292 34.4375C53.9125 34.1208 53.5431 33.9625 53.1208 33.9625C52.6986 33.9625 52.3292 34.1208 52.0125 34.4375L47.025 39.3458C46.7083 39.6625 46.55 40.0457 46.55 40.4953C46.55 40.945 46.7083 41.3271 47.025 41.6417C47.3417 41.9562 47.7238 42.1146 48.1713 42.1167C48.6189 42.1188 49.0021 41.9604 49.3208 41.6417L54.2292 36.6542ZM36.2995 52.3703C33.2109 49.2818 31.6667 45.5472 31.6667 41.1667C31.6667 36.7861 33.2109 33.0526 36.2995 29.9662C39.3881 26.8797 43.1216 25.3354 47.5 25.3333C51.8784 25.3312 55.613 26.8755 58.7037 29.9662C61.7943 33.0568 63.3376 36.7903 63.3333 41.1667C63.3291 45.543 61.7848 49.2776 58.7005 52.3703C55.6162 55.4631 51.8827 57.0063 47.5 57C43.1173 56.9937 39.3838 55.4526 36.2995 52.3703ZM0 22.1667V6.33333C0 4.59167 0.620667 3.10122 1.862 1.862C3.10333 0.622777 4.59378 0.00211111 6.33333 0H57C58.7417 0 60.2332 0.620666 61.4745 1.862C62.7158 3.10333 63.3354 4.59378 63.3333 6.33333V20.9C63.3333 21.7972 62.9111 22.4569 62.0667 22.8792C61.2222 23.3014 60.4042 23.2222 59.6125 22.6417C57.8181 21.4278 55.9054 20.5179 53.8745 19.912C51.8436 19.3061 49.7188 19.0021 47.5 19C45.4944 19 43.5818 19.2512 41.762 19.7537C39.9422 20.2561 38.2132 20.9549 36.575 21.85L31.35 11.2417C31.0861 10.7139 30.6903 10.3181 30.1625 10.0542C29.6347 9.79028 29.0806 9.65833 28.5 9.65833C27.9194 9.65833 27.3653 9.79028 26.8375 10.0542C26.3097 10.3181 25.9139 10.7139 25.65 11.2417L15.8333 30.9542L12.2708 23.9083C12.0069 23.3806 11.6238 22.9583 11.1213 22.6417C10.6189 22.325 10.0784 22.1667 9.5 22.1667H0ZM6.33333 50.6667C4.59167 50.6667 3.10122 50.0471 1.862 48.8078C0.622778 47.5686 0.00211111 46.0771 0 44.3333V28.5H7.52083L12.9833 39.425C13.2472 40.0056 13.6304 40.4415 14.1328 40.7328C14.6353 41.0242 15.2021 41.1688 15.8333 41.1667C16.4139 41.1667 16.9554 41.0221 17.4578 40.7328C17.9603 40.4436 18.3424 40.0077 18.6042 39.425L28.5 19.7917L31.5083 25.8083C29.6083 27.8139 28.1042 30.1234 26.9958 32.737C25.8875 35.3506 25.3333 38.1604 25.3333 41.1667C25.3333 42.1167 25.3998 43.0804 25.5328 44.0578C25.6658 45.0353 25.8632 45.9979 26.125 46.9458C26.3889 47.8431 26.2443 48.6875 25.6912 49.4792C25.1381 50.2708 24.4118 50.6667 23.5125 50.6667H6.33333Z" fill="#ED5934"/>
</svg>
