<svg width="70" height="68" viewBox="0 0 70 68" fill="none" xmlns="http://www.w3.org/2000/svg">
<path d="M26.5666 3.20333L24.0913 0.901637C22.7299 -0.364296 20.5803 -0.286178 19.3143 1.07523L12.4093 8.50112L9.93396 6.19942L5.33057 11.15L7.80586 13.4517L0.900775 20.8776C-0.365158 22.239 -0.28704 24.3886 1.07437 25.6546L3.54967 27.9563C4.91108 29.2222 7.06072 29.1441 8.32666 27.7827L26.7402 7.98032C28.0062 6.61891 27.928 4.46927 26.5666 3.20333ZM63.3488 28.1748L58.3983 23.5714C57.0368 22.3055 54.8872 22.3836 53.6213 23.745L42.1128 36.1215L32.2116 26.9147L43.7201 14.5382C44.986 13.1768 44.9079 11.0272 43.5465 9.76123L38.5959 5.15783C37.2345 3.8919 35.0848 3.97002 33.8189 5.33143L6.19856 35.035C4.93263 36.3964 5.01074 38.546 6.37215 39.8119L11.3227 44.4153C12.6842 45.6813 14.8338 45.6032 16.0997 44.2417L27.6082 31.8653L37.5094 41.0721L26.0009 53.4485C24.735 54.8099 24.8131 56.9596 26.1745 58.2255L31.1251 62.8289C32.4865 64.0948 34.6362 64.0167 35.9021 62.6553L63.5224 32.9518C64.7884 31.5904 64.7103 29.4407 63.3488 28.1748ZM68.8202 47.1092C70.0862 45.7477 70.008 43.5981 68.6466 42.3322L66.1713 40.0305C64.8099 38.7645 62.6603 38.8427 61.3943 40.2041L42.9808 60.0064C41.7148 61.3678 41.793 63.5175 43.1544 64.7834L45.6297 67.0851C46.9911 68.351 49.1407 68.2729 50.4067 66.9115L57.3117 59.4856L59.787 61.7873L64.3904 56.8367L61.9151 54.535L68.8202 47.1092Z" fill="#EBC21B"/>
</svg>
