<svg width="61" height="64" viewBox="0 0 61 64" fill="none" xmlns="http://www.w3.org/2000/svg">
<path fill-rule="evenodd" clip-rule="evenodd" d="M28.75 31.625C28.75 49.0906 42.9094 63.25 60.375 63.25V51.0312C55.2281 51.0312 50.2921 48.9867 46.6527 45.3473C43.0133 41.7079 40.9688 36.7719 40.9688 31.625C40.9688 26.4781 43.0133 21.5421 46.6527 17.9027C50.2921 14.2633 55.2281 12.2188 60.375 12.2188V0C42.9094 0 28.75 14.1594 28.75 31.625ZM45.2812 31.625C45.2812 23.2875 52.0375 16.5312 60.375 16.5312V46.7188C56.3719 46.7188 52.5327 45.1285 49.7021 42.2979C46.8715 39.4673 45.2812 35.6281 45.2812 31.625ZM3.83867e-07 2.875V18.6875C-0.000682681 21.4925 0.910249 24.2216 2.59554 26.4639C4.28083 28.7061 6.64919 30.3398 9.34375 31.119V60.375H16.5312V31.119C19.2258 30.3398 21.5942 28.7061 23.2795 26.4639C24.9648 24.2216 25.8757 21.4925 25.875 18.6875V2.875H20.125V15.8125H15.8125V2.875H10.0625V15.8125H5.75V2.875H3.83867e-07Z" fill="#0E8844"/>
</svg>
