<svg width="60" height="60" viewBox="0 0 60 60" fill="none" xmlns="http://www.w3.org/2000/svg">
<path fill-rule="evenodd" clip-rule="evenodd" d="M30 60C46.569 60 60 46.569 60 30C60 13.431 46.569 0 30 0C13.431 0 0 13.431 0 30C0 46.569 13.431 60 30 60ZM44.121 20.121C44.6675 19.5552 44.9699 18.7974 44.963 18.0108C44.9562 17.2242 44.6407 16.4718 44.0845 15.9155C43.5282 15.3593 42.7758 15.0438 41.9892 15.037C41.2026 15.0301 40.4448 15.3325 39.879 15.879L15.879 39.879C15.5925 40.1557 15.3639 40.4868 15.2067 40.8528C15.0495 41.2188 14.9667 41.6125 14.9632 42.0108C14.9598 42.4091 15.0357 42.8042 15.1865 43.1729C15.3374 43.5415 15.5601 43.8765 15.8418 44.1582C16.1235 44.4399 16.4584 44.6626 16.8271 44.8135C17.1958 44.9643 17.5909 45.0402 17.9892 45.0368C18.3875 45.0333 18.7812 44.9505 19.1472 44.7933C19.5132 44.6361 19.8443 44.4075 20.121 44.121L44.121 20.121Z" fill="white"/>
</svg>
