<svg width="68" height="68" viewBox="0 0 68 68" fill="none" xmlns="http://www.w3.org/2000/svg">
<path d="M61.869 5.9533C65.6809 9.76568 67.8223 14.9361 67.8223 20.3272C67.8223 25.7184 65.6809 30.8888 61.869 34.7011L34.5357 62.0345C30.7084 65.7736 25.5613 67.8531 20.2108 67.822C14.8603 67.7908 9.73773 65.6515 5.95428 61.868C2.17082 58.0846 0.0315036 52.962 0.000345161 47.6115C-0.0308133 42.261 2.0487 37.1139 5.78783 33.2866L33.1212 5.9533C36.9335 2.14144 42.1039 0 47.4951 0C52.8862 0 58.0566 2.14144 61.869 5.9533ZM37.9523 10.7845L23.2812 25.4522L42.3667 44.5377L57.0378 29.8734C58.3058 28.6235 59.3139 27.135 60.0041 25.4938C60.6943 23.8526 61.0529 22.091 61.0592 20.3106C61.0656 18.5302 60.7197 16.7661 60.0413 15.1199C59.3629 13.4738 58.3655 11.9782 57.1065 10.7192C55.8475 9.46026 54.3519 8.46285 52.7058 7.78445C51.0596 7.10606 49.2955 6.76009 47.5151 6.76647C45.7347 6.77285 43.9731 7.13146 42.3319 7.82164C40.6907 8.51182 39.2022 9.51993 37.9523 10.7879" fill="#DBBF20"/>
</svg>
