<svg width="59" height="65" viewBox="0 0 59 65" fill="none" xmlns="http://www.w3.org/2000/svg">
<path d="M6.5 0H52C53.7239 0 55.3772 0.684819 56.5962 1.90381C57.8152 3.12279 58.5 4.77609 58.5 6.5V58.5C58.5 60.2239 57.8152 61.8772 56.5962 63.0962C55.3772 64.3152 53.7239 65 52 65H6.5C4.77609 65 3.12279 64.3152 1.90381 63.0962C0.684819 61.8772 0 60.2239 0 58.5V6.5C0 4.77609 0.684819 3.12279 1.90381 1.90381C3.12279 0.684819 4.77609 0 6.5 0ZM29.25 6.5C25.8022 6.5 22.4956 7.86964 20.0576 10.3076C17.6196 12.7456 16.25 16.0522 16.25 19.5H26.845L25.5125 10.4975L32.175 19.5H42.25C42.25 16.0522 40.8804 12.7456 38.4424 10.3076C36.0044 7.86964 32.6978 6.5 29.25 6.5ZM6.5 26V58.5H52V26H6.5Z" fill="#434335"/>
</svg>
