<svg width="16" height="22" viewBox="0 0 16 22" fill="none" xmlns="http://www.w3.org/2000/svg">
<path d="M8 0.787068L8.5664 0.230818C8.49209 0.157652 8.4038 0.0996022 8.30661 0.0599946C8.20942 0.020387 8.10523 0 8 0C7.89477 0 7.79058 0.020387 7.69339 0.0599946C7.59619 0.0996022 7.50791 0.157652 7.4336 0.230818L8 0.787068ZM8 0.787068L7.4336 0.230818L7.432 0.232389C7.432 0.235532 7.4304 0.237627 7.4272 0.238675L7.4096 0.25596L7.3456 0.320384L7.1072 0.565511C5.88837 1.85071 4.76445 3.21967 3.744 4.66196C1.9248 7.23737 0 10.7461 0 14.1434H1.6C1.6 11.2537 3.2752 8.08432 5.0576 5.55605C6.09473 4.09281 7.24307 2.70871 8.4928 1.4156L8.5488 1.35903L8.5616 1.34646L8.5648 1.34332L8 0.787068ZM16 14.1434C16 10.7477 14.0752 7.23894 12.2576 4.66039C11.2366 3.21859 10.1121 1.85015 8.8928 0.565511L8.6544 0.320384L8.5904 0.25596L8.5744 0.238675L8.568 0.23396L8.5664 0.230818L8 0.787068L7.4336 1.34175L7.4368 1.34646L7.4512 1.35903C7.54531 1.45105 7.63707 1.54536 7.7264 1.64187C8.8916 2.86946 9.96631 4.17697 10.9424 5.55448C12.7248 8.08589 14.4 11.2553 14.4 14.1434H16ZM14.4 14.1434C14.4 15.8103 13.7257 17.409 12.5255 18.5877C11.3253 19.7665 9.69739 20.4287 8 20.4287V22C10.1217 22 12.1566 21.1722 13.6569 19.6988C15.1571 18.2254 16 16.2271 16 14.1434H14.4ZM8 20.4287C6.30261 20.4287 4.67475 19.7665 3.47452 18.5877C2.27428 17.409 1.6 15.8103 1.6 14.1434H0C0 16.2271 0.842855 18.2254 2.34315 19.6988C3.84344 21.1722 5.87827 22 8 22V20.4287Z" fill="white"/>
</svg>
