<svg width="23" height="21" viewBox="0 0 23 21" fill="none" xmlns="http://www.w3.org/2000/svg">
<path d="M11.25 4.25C11.25 4.25 11.25 4.25 10.3633 3.08333C9.33667 1.73 7.82 0.75 6 0.75C3.095 0.75 0.75 3.095 0.75 6C0.75 7.085 1.07667 8.08833 1.63667 8.91667C2.58167 10.3283 11.25 19.4167 11.25 19.4167M11.25 4.25C11.25 4.25 11.25 4.25 12.1367 3.08333C13.1633 1.73 14.68 0.75 16.5 0.75C19.405 0.75 21.75 3.095 21.75 6C21.75 7.085 21.4233 8.08833 20.8633 8.91667C19.9183 10.3283 11.25 19.4167 11.25 19.4167" stroke="white" stroke-width="1.5" stroke-linecap="round" stroke-linejoin="round"/>
</svg>
