<svg width="24" height="18" viewBox="0 0 24 18" fill="none" xmlns="http://www.w3.org/2000/svg">
<path d="M22.5983 8.1725H22.155V4.22917C22.1532 3.72848 21.9534 3.24882 21.5994 2.89477C21.2453 2.54073 20.7657 2.34101 20.265 2.33917H19.53V1.89583C19.53 1.39303 19.3303 0.910815 18.9747 0.555277C18.6192 0.199739 18.137 0 17.6342 0C17.1314 0 16.6491 0.199739 16.2936 0.555277C15.9381 0.910815 15.7383 1.39303 15.7383 1.89583V8.1725H7.44333V1.89583C7.44333 1.39303 7.24359 0.910815 6.88806 0.555277C6.53252 0.199739 6.05031 0 5.5475 0C5.04469 0 4.56248 0.199739 4.20694 0.555277C3.85141 0.910815 3.65167 1.39303 3.65167 1.89583V2.33917H2.91667C2.41541 2.33917 1.93468 2.53829 1.58023 2.89274C1.22579 3.24718 1.02667 3.72791 1.02667 4.22917V8.1725H0.583333C0.428624 8.1725 0.28025 8.23396 0.170854 8.34335C0.061458 8.45275 0 8.60112 0 8.75583C0 8.91054 0.061458 9.05892 0.170854 9.16831C0.28025 9.27771 0.428624 9.33917 0.583333 9.33917H1.02667V13.2708C1.02513 13.52 1.07288 13.767 1.16717 13.9977C1.26146 14.2283 1.40044 14.4381 1.57609 14.6148C1.75175 14.7916 1.96062 14.9318 2.19069 15.0275C2.42076 15.1232 2.66748 15.1725 2.91667 15.1725H3.6575V15.6042C3.6575 16.107 3.85724 16.5892 4.21278 16.9447C4.56831 17.3003 5.05053 17.5 5.55333 17.5C6.05614 17.5 6.53835 17.3003 6.89389 16.9447C7.24943 16.5892 7.44917 16.107 7.44917 15.6042V9.33917H15.7442V15.6042C15.7442 16.107 15.9439 16.5892 16.2994 16.9447C16.655 17.3003 17.1372 17.5 17.64 17.5C18.1428 17.5 18.625 17.3003 18.9806 16.9447C19.3361 16.5892 19.5358 16.107 19.5358 15.6042V15.1725H20.2708C20.7732 15.1694 21.2539 14.9677 21.608 14.6114C21.9621 14.2551 22.1608 13.7732 22.1608 13.2708V9.33917H22.6042C22.7589 9.33917 22.9072 9.27771 23.0166 9.16831C23.126 9.05892 23.1875 8.91054 23.1875 8.75583C23.1875 8.60112 23.126 8.45275 23.0166 8.34335C22.9072 8.23396 22.7589 8.1725 22.6042 8.1725H22.5983ZM3.6575 14.0058H2.9225C2.82674 14.0051 2.73207 13.9855 2.6439 13.9481C2.55573 13.9108 2.47577 13.8564 2.4086 13.7881C2.34143 13.7199 2.28837 13.6391 2.25243 13.5503C2.2165 13.4616 2.1984 13.3666 2.19917 13.2708V4.22917C2.20009 4.03761 2.27659 3.85416 2.41204 3.71871C2.5475 3.58326 2.73094 3.50675 2.9225 3.50583H3.6575V14.0058ZM6.2825 15.6042C6.28128 15.7987 6.20345 15.985 6.06587 16.1225C5.9283 16.2601 5.74206 16.3379 5.5475 16.3392C5.45174 16.3384 5.35707 16.3188 5.2689 16.2814C5.18073 16.2441 5.10077 16.1897 5.0336 16.1215C4.96643 16.0532 4.91337 15.9724 4.87743 15.8837C4.8415 15.7949 4.8234 15.6999 4.82417 15.6042V1.89583C4.82509 1.70428 4.90159 1.52083 5.03704 1.38538C5.17249 1.24992 5.35594 1.17342 5.5475 1.1725C5.74043 1.17248 5.92563 1.24831 6.06314 1.38364C6.20065 1.51896 6.27944 1.70293 6.2825 1.89583V15.6042ZM18.3692 15.6042C18.3692 15.7976 18.2923 15.983 18.1556 16.1198C18.0189 16.2565 17.8334 16.3333 17.64 16.3333C17.4466 16.3333 17.2611 16.2565 17.1244 16.1198C16.9877 15.983 16.9108 15.7976 16.9108 15.6042V1.89583C16.9108 1.70245 16.9877 1.51698 17.1244 1.38023C17.2611 1.24349 17.4466 1.16667 17.64 1.16667C17.8334 1.16667 18.0189 1.24349 18.1556 1.38023C18.2923 1.51698 18.3692 1.70245 18.3692 1.89583V15.6042ZM20.9942 13.2708C20.9949 13.3666 20.9768 13.4616 20.9409 13.5503C20.905 13.6391 20.8519 13.7199 20.7847 13.7881C20.7176 13.8564 20.6376 13.9108 20.5494 13.9481C20.4613 13.9855 20.3666 14.0051 20.2708 14.0058H19.5358V3.50583H20.2708C20.4624 3.50675 20.6458 3.58326 20.7813 3.71871C20.9167 3.85416 20.9932 4.03761 20.9942 4.22917V13.2708Z" fill="white"/>
</svg>
