<svg width="17" height="21" viewBox="0 0 17 21" fill="none" xmlns="http://www.w3.org/2000/svg">
<path d="M3 8.12344V0.75C3 0.551088 3.07902 0.360322 3.21967 0.21967C3.36032 0.0790176 3.55109 0 3.75 0C3.94891 0 4.13968 0.0790176 4.28033 0.21967C4.42098 0.360322 4.5 0.551088 4.5 0.75V8.12344C4.93902 7.96822 5.31907 7.68062 5.58773 7.30029C5.85639 6.91996 6.00044 6.46565 6 6V0.75C6 0.551088 6.07902 0.360322 6.21967 0.21967C6.36032 0.0790176 6.55109 0 6.75 0C6.94891 0 7.13968 0.0790176 7.28033 0.21967C7.42098 0.360322 7.5 0.551088 7.5 0.75V6C7.50018 6.86449 7.20166 7.70249 6.65498 8.37218C6.1083 9.04186 5.34702 9.5021 4.5 9.675V20.25C4.5 20.4489 4.42098 20.6397 4.28033 20.7803C4.13968 20.921 3.94891 21 3.75 21C3.55109 21 3.36032 20.921 3.21967 20.7803C3.07902 20.6397 3 20.4489 3 20.25V9.675C2.15298 9.5021 1.3917 9.04186 0.84502 8.37218C0.298338 7.70249 -0.000176363 6.86449 7.81713e-08 6V0.75C7.81713e-08 0.551088 0.0790178 0.360322 0.21967 0.21967C0.360322 0.0790176 0.551088 0 0.75 0C0.948912 0 1.13968 0.0790176 1.28033 0.21967C1.42098 0.360322 1.5 0.551088 1.5 0.75V6C1.49956 6.46565 1.64361 6.91996 1.91227 7.30029C2.18094 7.68062 2.56098 7.96822 3 8.12344ZM12 2.25703V11.25H14.9695C14.8914 9.40469 14.668 7.78203 14.2992 6.38203C13.9664 5.10078 13.2 3.72578 12 2.25703ZM12 12.75V20.25C12 20.4489 11.921 20.6397 11.7803 20.7803C11.6397 20.921 11.4489 21 11.25 21C11.0511 21 10.8603 20.921 10.7197 20.7803C10.579 20.6397 10.5 20.4489 10.5 20.25V0H12C14 2.09687 15.25 4.09688 15.75 6C16.5 8.85469 16.5 10.1531 16.5 12.75H12Z" fill="white"/>
</svg>
