<svg width="20" height="20" viewBox="0 0 20 20" fill="none" xmlns="http://www.w3.org/2000/svg">
<path d="M9.66667 9.20267C10.5496 9.20267 11.2971 8.89656 11.9093 8.28433C12.5216 7.67211 12.8277 6.92456 12.8277 6.04167C12.8277 5.15878 12.5216 4.41122 11.9093 3.799C11.2971 3.18678 10.5496 2.88067 9.66667 2.88067C8.78378 2.88067 8.03622 3.18678 7.424 3.799C6.81178 4.41122 6.50567 5.15878 6.50567 6.04167C6.50567 6.92456 6.81178 7.67211 7.424 8.28433C8.03622 8.89656 8.78378 9.20267 9.66667 9.20267ZM7.43125 6.46458C7.31042 6.34375 7.25 6.20278 7.25 6.04167C7.25 5.88056 7.31042 5.73958 7.43125 5.61875C7.55208 5.49792 7.69306 5.4375 7.85417 5.4375C8.01528 5.4375 8.15625 5.49792 8.27708 5.61875C8.39792 5.73958 8.45833 5.88056 8.45833 6.04167C8.45833 6.20278 8.39792 6.34375 8.27708 6.46458C8.15625 6.58542 8.01528 6.64583 7.85417 6.64583C7.69306 6.64583 7.55208 6.58542 7.43125 6.46458ZM9.24375 6.46458C9.12292 6.34375 9.0625 6.20278 9.0625 6.04167C9.0625 5.88056 9.12292 5.73958 9.24375 5.61875C9.36458 5.49792 9.50556 5.4375 9.66667 5.4375C9.82778 5.4375 9.96875 5.49792 10.0896 5.61875C10.2104 5.73958 10.2708 5.88056 10.2708 6.04167C10.2708 6.20278 10.2104 6.34375 10.0896 6.46458C9.96875 6.58542 9.82778 6.64583 9.66667 6.64583C9.50556 6.64583 9.36458 6.58542 9.24375 6.46458ZM11.0562 6.46458C10.9354 6.34375 10.875 6.20278 10.875 6.04167C10.875 5.88056 10.9354 5.73958 11.0562 5.61875C11.1771 5.49792 11.3181 5.4375 11.4792 5.4375C11.6403 5.4375 11.7813 5.49792 11.9021 5.61875C12.0229 5.73958 12.0833 5.88056 12.0833 6.04167C12.0833 6.20278 12.0229 6.34375 11.9021 6.46458C11.7813 6.58542 11.6403 6.64583 11.4792 6.64583C11.3181 6.64583 11.1771 6.58542 11.0562 6.46458ZM1.95267 19.3333C1.39603 19.3333 0.931625 19.1473 0.559458 18.7751C0.187291 18.4029 0.000805556 17.9381 0 17.3807V1.95267C0 1.39603 0.186486 0.931625 0.559458 0.559458C0.93243 0.187291 1.39683 0.000805556 1.95267 0H17.3819C17.9377 0 18.4021 0.186486 18.7751 0.559458C19.1481 0.93243 19.3341 1.39683 19.3333 1.95267V17.3819C19.3333 17.9377 19.1473 18.4021 18.7751 18.7751C18.4029 19.1481 17.9381 19.3341 17.3807 19.3333H1.95267ZM1.95267 18.125H17.3819C17.5672 18.125 17.7375 18.0477 17.893 17.893C18.0485 17.7383 18.1258 17.5676 18.125 17.3807V1.95267C18.125 1.76658 18.0477 1.59581 17.893 1.44033C17.7383 1.28486 17.5676 1.20753 17.3807 1.20833H1.95267C1.76658 1.20833 1.59581 1.28567 1.44033 1.44033C1.28486 1.595 1.20753 1.76578 1.20833 1.95267V17.3819C1.20833 17.5672 1.28567 17.7375 1.44033 17.893C1.595 18.0485 1.76537 18.1258 1.95146 18.125" fill="white"/>
</svg>
