<svg width="34" height="34" viewBox="0 0 34 34" fill="none" xmlns="http://www.w3.org/2000/svg">
<rect width="34" height="34" rx="8" fill="#FFF7ED"/>
<path d="M17.2298 22.8337C17.3965 22.8198 17.5388 22.7538 17.6569 22.6357C17.775 22.5177 17.834 22.3753 17.834 22.2087C17.834 22.0142 17.7715 21.858 17.6465 21.7399C17.5215 21.6219 17.3618 21.5698 17.1673 21.5837C16.5979 21.6253 15.9937 21.4691 15.3548 21.1149C14.7159 20.7607 14.3132 20.1184 14.1465 19.1878C14.1187 19.035 14.0458 18.91 13.9277 18.8128C13.8097 18.7156 13.6743 18.667 13.5215 18.667C13.327 18.667 13.1673 18.7399 13.0423 18.8857C12.9173 19.0316 12.8757 19.2017 12.9173 19.3962C13.1534 20.66 13.709 21.5628 14.584 22.1045C15.459 22.6462 16.3409 22.8892 17.2298 22.8337ZM17.0007 25.3337C15.0979 25.3337 13.5111 24.6809 12.2402 23.3753C10.9694 22.0698 10.334 20.4448 10.334 18.5003C10.334 17.1114 10.8861 15.601 11.9902 13.9691C13.0944 12.3371 14.7645 10.5698 17.0007 8.66699C19.2368 10.5698 20.9069 12.3371 22.0111 13.9691C23.1152 15.601 23.6673 17.1114 23.6673 18.5003C23.6673 20.4448 23.0319 22.0698 21.7611 23.3753C20.4902 24.6809 18.9034 25.3337 17.0007 25.3337ZM17.0007 23.667C18.4451 23.667 19.6395 23.1774 20.584 22.1982C21.5284 21.2191 22.0007 19.9864 22.0007 18.5003C22.0007 17.4864 21.5805 16.3406 20.7402 15.0628C19.9 13.785 18.6534 12.3892 17.0007 10.8753C15.3479 12.3892 14.1013 13.785 13.2611 15.0628C12.4208 16.3406 12.0007 17.4864 12.0007 18.5003C12.0007 19.9864 12.4729 21.2191 13.4173 22.1982C14.3618 23.1774 15.5562 23.667 17.0007 23.667Z" fill="#F97316"/>
</svg>
