<svg width="34" height="34" viewBox="0 0 34 34" fill="none" xmlns="http://www.w3.org/2000/svg">
<rect width="34" height="34" rx="8" fill="#FEF2F2"/>
<path d="M16.9993 24.6462L15.791 23.5628C14.3882 22.2989 13.2285 21.2087 12.3118 20.292C11.3952 19.3753 10.666 18.5524 10.1243 17.8232C9.58268 17.0941 9.20421 16.4239 8.98893 15.8128C8.77365 15.2017 8.66602 14.5767 8.66602 13.9378C8.66602 12.6323 9.10352 11.542 9.97852 10.667C10.8535 9.79199 11.9438 9.35449 13.2493 9.35449C13.9716 9.35449 14.6591 9.50727 15.3118 9.81283C15.9646 10.1184 16.5271 10.5489 16.9993 11.1045C17.4716 10.5489 18.0341 10.1184 18.6868 9.81283C19.3396 9.50727 20.0271 9.35449 20.7493 9.35449C22.0549 9.35449 23.1452 9.79199 24.0202 10.667C24.8952 11.542 25.3327 12.6323 25.3327 13.9378C25.3327 14.5767 25.225 15.2017 25.0098 15.8128C24.7945 16.4239 24.416 17.0941 23.8743 17.8232C23.3327 18.5524 22.6035 19.3753 21.6868 20.292C20.7702 21.2087 19.6105 22.2989 18.2077 23.5628L16.9993 24.6462ZM16.9993 22.3962C18.3327 21.2017 19.4299 20.1774 20.291 19.3232C21.1521 18.4691 21.8327 17.726 22.3327 17.0941C22.8327 16.4621 23.1799 15.8996 23.3743 15.4066C23.5688 14.9135 23.666 14.4239 23.666 13.9378C23.666 13.1045 23.3882 12.41 22.8327 11.8545C22.2771 11.2989 21.5827 11.0212 20.7493 11.0212C20.0966 11.0212 19.4924 11.2052 18.9368 11.5732C18.3813 11.9413 17.9993 12.41 17.791 12.9795H16.2077C15.9993 12.41 15.6174 11.9413 15.0618 11.5732C14.5063 11.2052 13.9021 11.0212 13.2493 11.0212C12.416 11.0212 11.7216 11.2989 11.166 11.8545C10.6105 12.41 10.3327 13.1045 10.3327 13.9378C10.3327 14.4239 10.4299 14.9135 10.6243 15.4066C10.8188 15.8996 11.166 16.4621 11.666 17.0941C12.166 17.726 12.8466 18.4691 13.7077 19.3232C14.5688 20.1774 15.666 21.2017 16.9993 22.3962Z" fill="#EF4444"/>
</svg>
