<svg width="34" height="34" viewBox="0 0 34 34" fill="none" xmlns="http://www.w3.org/2000/svg">
<rect width="34" height="34" rx="8" fill="#F0FDF4"/>
<path d="M18.1667 25.25L17 24.0833L19.9583 21.125L12.875 14.0417L9.91667 17L8.75 15.8333L9.91667 14.625L8.75 13.4583L10.5 11.7083L9.33333 10.5L10.5 9.33333L11.7083 10.5L13.4583 8.75L14.625 9.91667L15.8333 8.75L17 9.91667L14.0417 12.875L21.125 19.9583L24.0833 17L25.25 18.1667L24.0833 19.375L25.25 20.5417L23.5 22.2917L24.6667 23.5L23.5 24.6667L22.2917 23.5L20.5417 25.25L19.375 24.0833L18.1667 25.25Z" fill="#16A34A"/>
</svg>
