<svg width="34" height="34" viewBox="0 0 34 34" fill="none" xmlns="http://www.w3.org/2000/svg">
<rect width="34" height="34" rx="8" fill="#FAF5FF"/>
<path d="M13.25 25.3337V17.7087C12.5417 17.5142 11.9479 17.1253 11.4688 16.542C10.9896 15.9587 10.75 15.2781 10.75 14.5003V8.66699H12.4167V14.5003H13.25V8.66699H14.9167V14.5003H15.75V8.66699H17.4167V14.5003C17.4167 15.2781 17.1771 15.9587 16.6979 16.542C16.2188 17.1253 15.625 17.5142 14.9167 17.7087V25.3337H13.25ZM21.5833 25.3337V18.667H19.0833V12.8337C19.0833 11.6809 19.4896 10.6982 20.3021 9.88574C21.1146 9.07324 22.0972 8.66699 23.25 8.66699V25.3337H21.5833Z" fill="#9333EA"/>
</svg>
