<svg width="31" height="75" viewBox="0 0 31 75" fill="none" xmlns="http://www.w3.org/2000/svg">
<path d="M22.7341 17.0022C23.8878 17.0022 24.9498 17.2251 25.92 17.6708C28.7999 19.1204 30.5003 21.8753 30.5219 24.9473V46.1081C29.9818 49.4721 26.1313 48.5574 26.0381 46.1081V26.1273C25.6949 24.9879 23.4947 25.4603 23.4421 26.1273V71.9889C22.8827 76.6719 16.8313 75.2972 16.677 71.9102V43.8269C16.2901 42.0155 13.7435 42.8386 13.6877 43.9056C13.7957 53.2401 13.7664 62.5752 13.7664 71.9102C13.1629 76.5692 7.14094 75.3771 7.00119 71.9889L6.92256 26.1273C6.56987 25.0124 4.53112 25.4401 4.48387 26.1273V46.1081C3.94362 49.4721 0.09325 48.5574 0 46.1081V24.9473C0.0544375 22.0063 1.13231 19.06 3.69725 17.6708C4.53637 17.225 5.55902 17.0021 6.76519 17.0021L22.7341 17.0022ZM22.6548 7.39231C22.6548 11.475 19.3451 14.7847 15.2624 14.7847C11.1797 14.7847 7.87006 11.475 7.87006 7.39231C7.87 3.30969 11.1797 0 15.2622 0C19.3451 0 22.6548 3.30969 22.6548 7.39231Z" fill="#A5A5A5"/>
</svg>
