<svg width="35" height="35" viewBox="0 0 35 35" fill="none" xmlns="http://www.w3.org/2000/svg">
<rect width="35" height="35" rx="12" fill="#ECFEFF"/>
<path d="M17.5 26.5C15.4219 26.5 13.6523 25.7737 12.1914 24.3211C10.7305 22.8684 10 21.1 10 19.0158C10 17.9895 10.1953 17.0303 10.5859 16.1382C10.9766 15.2461 11.5156 14.4526 12.2031 13.7579L17.5 8.5L22.7969 13.7579C23.4844 14.4526 24.0234 15.2461 24.4141 16.1382C24.8047 17.0303 25 17.9895 25 19.0158C25 21.1 24.2695 22.8684 22.8086 24.3211C21.3477 25.7737 19.5781 26.5 17.5 26.5ZM11.9219 19.8684H23.0312C23.2188 18.7316 23.1133 17.7605 22.7148 16.9553C22.3164 16.15 21.9062 15.5421 21.4844 15.1316L17.5 11.1526L13.5156 15.1316C13.0938 15.5421 12.6797 16.15 12.2734 16.9553C11.8672 17.7605 11.75 18.7316 11.9219 19.8684Z" fill="#0891B2"/>
</svg>
