<svg width="34" height="34" viewBox="0 0 34 34" fill="none" xmlns="http://www.w3.org/2000/svg">
<rect width="34" height="34" rx="8" fill="#EFF6FF"/>
<path d="M17 17C17.6944 17 18.2847 16.7569 18.7708 16.2708C19.2569 15.7847 19.5 15.1944 19.5 14.5C19.5 13.8056 19.2569 13.2153 18.7708 12.7292C18.2847 12.2431 17.6944 12 17 12C16.3056 12 15.7153 12.2431 15.2292 12.7292C14.7431 13.2153 14.5 13.8056 14.5 14.5C14.5 15.1944 14.7431 15.7847 15.2292 16.2708C15.7153 16.7569 16.3056 17 17 17ZM15.75 14.9167C15.6389 14.9167 15.5417 14.875 15.4583 14.7917C15.375 14.7083 15.3333 14.6111 15.3333 14.5C15.3333 14.3889 15.375 14.2917 15.4583 14.2083C15.5417 14.125 15.6389 14.0833 15.75 14.0833C15.8611 14.0833 15.9583 14.125 16.0417 14.2083C16.125 14.2917 16.1667 14.3889 16.1667 14.5C16.1667 14.6111 16.125 14.7083 16.0417 14.7917C15.9583 14.875 15.8611 14.9167 15.75 14.9167ZM17 14.9167C16.8889 14.9167 16.7917 14.875 16.7083 14.7917C16.625 14.7083 16.5833 14.6111 16.5833 14.5C16.5833 14.3889 16.625 14.2917 16.7083 14.2083C16.7917 14.125 16.8889 14.0833 17 14.0833C17.1111 14.0833 17.2083 14.125 17.2917 14.2083C17.375 14.2917 17.4167 14.3889 17.4167 14.5C17.4167 14.6111 17.375 14.7083 17.2917 14.7917C17.2083 14.875 17.1111 14.9167 17 14.9167ZM18.25 14.9167C18.1389 14.9167 18.0417 14.875 17.9583 14.7917C17.875 14.7083 17.8333 14.6111 17.8333 14.5C17.8333 14.3889 17.875 14.2917 17.9583 14.2083C18.0417 14.125 18.1389 14.0833 18.25 14.0833C18.3611 14.0833 18.4583 14.125 18.5417 14.2083C18.625 14.2917 18.6667 14.3889 18.6667 14.5C18.6667 14.6111 18.625 14.7083 18.5417 14.7917C18.4583 14.875 18.3611 14.9167 18.25 14.9167ZM11.1667 24.5C10.7083 24.5 10.316 24.3368 9.98958 24.0104C9.66319 23.684 9.5 23.2917 9.5 22.8333V11.1667C9.5 10.7083 9.66319 10.316 9.98958 9.98958C10.316 9.66319 10.7083 9.5 11.1667 9.5H22.8333C23.2917 9.5 23.684 9.66319 24.0104 9.98958C24.3368 10.316 24.5 10.7083 24.5 11.1667V22.8333C24.5 23.2917 24.3368 23.684 24.0104 24.0104C23.684 24.3368 23.2917 24.5 22.8333 24.5H11.1667ZM11.1667 22.8333H22.8333V11.1667H11.1667V22.8333ZM11.1667 11.1667V22.8333V11.1667Z" fill="#2563EB"/>
</svg>
